<svg width="15" height="12" viewBox="0 0 15 12" fill="none" xmlns="http://www.w3.org/2000/svg">
<path fill-rule="evenodd" clip-rule="evenodd" d="M1.26564 0H13.7345C14.4307 0 15 0.5403 15 1.20071C15 1.86111 14.4307 2.40153 13.7345 2.40153H1.26564C0.569585 2.40153 0 1.86123 0 1.20082C0 0.540301 0.569585 0 1.26564 0ZM1.26564 9.59859H13.7345C14.4307 9.59859 15 10.1389 15 10.7993C15 11.4597 14.4307 12 13.7345 12H1.26564C0.569585 12 0 11.4597 0 10.7993C0 10.1389 0.569585 9.59859 1.26564 9.59859ZM1.26564 4.79935H13.7345C14.4307 4.79935 15 5.33965 15 6.00006C15 6.66046 14.4307 7.20088 13.7345 7.20088H1.26564C0.569585 7.20088 0 6.66046 0 6.00006C0 5.33965 0.569585 4.79935 1.26564 4.79935Z" fill="white"/>
</svg>
