<svg width="12" height="16" viewBox="0 0 12 16" fill="none" xmlns="http://www.w3.org/2000/svg">
<path fill-rule="evenodd" clip-rule="evenodd" d="M5.54638 0C8.60469 0 11.0928 2.48809 11.0928 5.54637C11.0928 6.79731 10.2152 8.85897 8.48459 11.6741C7.59059 13.1283 6.68769 14.422 6.23022 15.0622H8.18779V16H2.905V15.0622H4.86257C4.4051 14.422 3.50222 13.1283 2.60819 11.6741C0.87753 8.85897 0 6.79734 0 5.54637C0 2.48809 2.4881 0 5.54638 0ZM0.93782 5.54637C0.93782 7.54412 3.97794 12.2133 5.54638 14.4095C7.11478 12.213 10.155 7.54319 10.155 5.54637C10.155 3.00519 8.08759 0.937781 5.54638 0.937781C3.00519 0.937781 0.93775 3.00519 0.93782 5.54637ZM2.69971 5.46043C2.69971 3.8908 3.97674 2.61377 5.54637 2.61377C7.11603 2.61377 8.39299 3.89077 8.39299 5.46043C8.39299 7.03006 7.11603 8.30709 5.54637 8.30709C3.97671 8.30709 2.69971 7.03006 2.69971 5.46043ZM3.63746 5.46043C3.63746 6.513 4.49381 7.36934 5.54637 7.36934C6.59894 7.36934 7.45525 6.513 7.45525 5.46043C7.45525 4.40784 6.59894 3.55152 5.54637 3.55152C4.49381 3.55152 3.63746 4.40784 3.63746 5.46043Z" fill="white"/>
</svg>
